<?xml version="1.0" standalone="no"?>
<!DOCTYPE svg PUBLIC "-//W3C//DTD SVG 20010904//EN"
 "http://www.w3.org/TR/2001/REC-SVG-20010904/DTD/svg10.dtd">
<svg version="1.0" xmlns="http://www.w3.org/2000/svg"
 width="512.000000pt" height="512.000000pt" viewBox="0 0 512.000000 512.000000"
 preserveAspectRatio="xMidYMid meet">

<g transform="translate(0.000000,512.000000) scale(0.100000,-0.100000)"
fill="#000000" stroke="none">
<path d="M930 5109 c-14 -6 -36 -20 -48 -32 -45 -42 -52 -69 -52 -197 0 -138
11 -175 64 -213 30 -22 38 -22 396 -27 l365 -5 3 -87 3 -88 -640 0 c-436 0
-657 -4 -693 -11 -108 -23 -219 -102 -273 -194 -58 -100 -56 -5 -53 -1886 l3
-1724 22 -55 c42 -102 131 -191 233 -232 52 -21 72 -23 365 -26 305 -3 311 -3
338 18 34 27 37 80 6 109 -20 19 -38 20 -328 23 -276 3 -309 5 -341 22 -49 26
-98 74 -123 121 l-22 40 0 1730 0 1730 22 41 c12 23 41 58 65 78 78 67 71 66
778 64 l635 -3 3 -87 3 -88 -418 0 c-230 0 -435 -5 -457 -9 -50 -12 -103 -65
-117 -116 -30 -109 -114 -193 -221 -219 -37 -9 -88 -54 -104 -93 -12 -27 -14
-252 -14 -1301 l0 -1269 23 -42 c23 -45 55 -67 142 -97 65 -23 136 -94 159
-159 29 -84 45 -109 83 -135 l37 -25 1103 -3 1103 -2 0 -90 0 -90 -891 0
c-608 0 -897 -3 -910 -11 -48 -25 -44 -105 7 -128 18 -8 273 -11 909 -11 l885
0 0 -101 c0 -116 13 -155 66 -195 60 -46 89 -43 310 30 l200 66 194 -65 c107
-36 206 -65 219 -65 40 0 109 39 131 74 17 28 20 50 20 144 l0 111 343 3 c327
3 344 4 397 26 102 41 191 130 233 232 l22 55 3 1724 c3 1881 5 1786 -53 1886
-54 92 -165 171 -273 194 -34 7 -192 11 -442 11 l-390 0 0 90 0 90 105 0 c127
0 168 16 203 79 22 39 23 51 20 171 -3 140 -10 158 -72 204 -26 20 -42 21
-354 24 -352 3 -374 0 -390 -47 -12 -33 7 -84 33 -95 9 -3 82 -6 161 -6 l144
0 0 -90 0 -90 -1415 0 -1415 0 0 90 0 90 1140 0 1141 0 24 25 c14 13 25 36 25
50 0 14 -11 37 -25 50 l-24 25 -1153 -1 c-741 0 -1162 -4 -1178 -10z m3210
-229 l0 -90 -90 0 -90 0 0 90 0 90 90 0 90 0 0 -90z m-830 -580 l0 -340 -750
0 -750 0 0 340 0 340 750 0 750 0 0 -340z m500 250 l0 -90 -175 0 -175 0 0 90
0 90 175 0 175 0 0 -90z m0 -330 l0 -90 -175 0 -175 0 0 90 0 90 175 0 175 0
0 -90z m976 75 c60 -18 127 -72 157 -129 l22 -41 0 -1730 0 -1730 -22 -40
c-25 -47 -74 -95 -123 -121 -32 -17 -62 -19 -365 -19 l-330 0 -3 87 -3 88 104
0 c157 0 195 25 243 165 24 69 94 136 170 164 87 31 107 45 132 92 l22 42 0
1269 c0 1049 -2 1274 -14 1301 -16 39 -67 84 -104 93 -107 26 -191 110 -221
219 -14 51 -67 104 -117 116 -22 4 -114 9 -206 9 l-168 0 0 90 0 90 388 0
c313 0 398 -3 438 -15z m-3126 -522 c6 -225 9 -236 80 -274 33 -18 75 -19 818
-19 755 0 784 1 821 19 71 37 75 51 81 276 l5 200 97 3 98 3 -8 -33 c-4 -18
-7 -105 -7 -193 0 -142 2 -164 20 -194 39 -67 62 -76 205 -79 149 -4 186 7
227 69 24 37 25 39 21 234 l-3 196 93 -3 94 -3 17 -50 c45 -129 152 -232 284
-274 l37 -13 -2 -1245 -3 -1245 -52 -18 c-119 -42 -222 -145 -262 -262 l-18
-53 -89 0 -89 0 -6 65 c-3 37 -16 85 -29 113 l-24 47 36 38 c55 57 105 139
137 222 108 281 36 597 -183 803 l-50 47 31 0 c16 0 42 9 57 21 33 26 36 79 6
109 -20 20 -33 20 -1539 20 -1461 0 -1520 -1 -1542 -18 -33 -27 -30 -78 5
-109 l27 -23 1025 0 1026 0 -54 -49 c-30 -27 -67 -68 -83 -90 l-28 -41 -699 0
-699 0 -24 -25 c-32 -31 -32 -69 0 -100 l24 -25 662 0 c626 0 661 -1 654 -17
-21 -55 -35 -150 -35 -239 0 -175 55 -331 163 -464 l53 -65 -25 -55 c-14 -30
-27 -81 -29 -113 l-4 -57 -1081 2 -1080 3 -18 52 c-40 118 -143 221 -262 263
l-52 18 0 1248 0 1247 40 12 c122 36 236 148 275 270 7 22 15 43 17 48 2 4
192 6 421 5 l417 -3 5 -202z m2288 174 c21 -19 22 -28 22 -169 l0 -148 -91 0
-90 0 3 144 c3 136 4 146 27 170 37 39 87 40 129 3z m-638 -227 l0 -90 -750 0
-750 0 0 90 0 90 750 0 750 0 0 -90z m385 -1585 c166 -42 313 -163 384 -316
89 -189 78 -385 -30 -565 -75 -124 -239 -236 -387 -265 -81 -15 -208 -7 -293
20 -164 52 -308 194 -371 367 -30 82 -36 244 -13 334 53 203 225 377 421 424
79 19 216 19 289 1z m-390 -1597 l0 -331 -67 -23 c-36 -12 -76 -25 -87 -29
l-21 -6 0 366 c0 306 2 371 15 395 l15 29 73 -35 72 -34 0 -332z m655 383 c6
-13 10 -156 10 -396 l0 -376 -21 6 c-11 4 -51 17 -87 29 l-67 23 -3 329 -2
329 72 36 c90 44 85 43 98 20z m-320 -377 l0 -285 -22 8 c-29 10 -95 10 -130
0 l-28 -7 0 285 0 285 90 0 90 0 0 -286z"/>
<path d="M4664 4116 c-33 -15 -44 -33 -44 -72 0 -42 33 -64 94 -64 47 0 57 4
75 26 12 15 21 33 21 40 0 29 -25 64 -53 74 -38 13 -55 12 -93 -4z"/>
<path d="M4642 787 c-30 -31 -28 -72 4 -104 22 -22 32 -25 77 -20 80 7 111 63
66 121 -17 22 -28 26 -73 26 -42 0 -57 -5 -74 -23z"/>
<path d="M1927 3286 c-84 -31 -106 -78 -107 -230 0 -127 19 -181 74 -216 33
-20 47 -20 670 -20 l636 0 40 36 c52 47 63 91 58 224 -4 119 -20 159 -80 195
-32 19 -53 20 -643 22 -493 2 -617 0 -648 -11z m1221 -228 l3 -88 -591 0 -590
0 0 83 c0 46 3 87 7 90 3 4 268 6 587 5 l581 -3 3 -87z"/>
<path d="M1015 2610 c-25 -28 -23 -76 4 -103 l22 -22 1518 0 c1480 0 1519 0
1540 19 14 13 21 31 21 57 0 75 132 69 -1566 69 -1511 0 -1521 0 -1539 -20z"/>
<path d="M1032 1303 c-7 -3 -19 -18 -28 -35 -13 -25 -13 -35 -3 -59 6 -17 20
-34 30 -39 10 -6 134 -10 289 -10 l271 0 24 25 c14 13 25 36 25 50 0 14 -11
37 -25 50 l-24 25 -273 -1 c-150 0 -279 -3 -286 -6z"/>
<path d="M3429 1952 c-107 -36 -194 -114 -244 -218 -39 -81 -46 -211 -16 -296
102 -290 466 -371 678 -150 190 199 126 527 -124 645 -87 40 -206 48 -294 19z
m210 -147 c61 -21 104 -58 137 -117 24 -45 29 -64 29 -123 -1 -267 -360 -352
-479 -113 -47 94 -29 216 42 292 63 67 179 94 271 61z"/>
<path d="M3482 1617 c-31 -33 -29 -80 4 -106 39 -31 107 -29 139 4 55 54 13
125 -73 125 -38 0 -53 -5 -70 -23z"/>
<path d="M361 4119 c-52 -21 -65 -69 -30 -113 18 -22 28 -26 75 -26 62 0 94
22 94 66 0 38 -16 61 -51 73 -38 13 -56 13 -88 0z"/>
<path d="M331 784 c-45 -58 -14 -114 66 -121 45 -5 55 -2 77 20 58 58 18 127
-71 127 -44 0 -55 -4 -72 -26z"/>
</g>
</svg>
