<?xml version="1.0" standalone="no"?>
<!DOCTYPE svg PUBLIC "-//W3C//DTD SVG 20010904//EN"
 "http://www.w3.org/TR/2001/REC-SVG-20010904/DTD/svg10.dtd">
<svg version="1.0" xmlns="http://www.w3.org/2000/svg"
 width="512.000000pt" height="512.000000pt" viewBox="0 0 512.000000 512.000000"
 preserveAspectRatio="xMidYMid meet">

<g transform="translate(0.000000,512.000000) scale(0.100000,-0.100000)"
fill="#000000" stroke="none">
<path d="M1285 4805 c-1341 -337 -1285 -320 -1285 -384 1 -30 16 -53 45 -68
11 -6 262 -70 558 -144 l537 -134 0 -488 c0 -465 1 -490 20 -526 11 -22 35
-49 54 -60 41 -26 840 -228 1026 -260 354 -61 546 -39 1270 145 398 102 421
111 458 177 15 29 17 78 20 523 l3 492 424 106 c234 58 429 106 435 106 7 0
10 -121 10 -348 l0 -349 -26 -24 c-109 -100 -42 -281 104 -281 92 0 152 55
160 147 5 57 -10 95 -52 134 l-26 24 0 372 0 373 29 5 c38 8 71 44 71 78 0 64
58 47 -1290 384 -690 173 -1264 314 -1275 314 -11 -1 -582 -142 -1270 -314z
m2360 -114 c589 -148 1063 -271 1055 -274 -8 -4 -493 -126 -1076 -271 l-1062
-266 -1058 265 c-583 146 -1068 268 -1079 272 -19 6 2082 540 2130 542 11 0
502 -120 1090 -268z m178 -1081 c-13 -11 -932 -239 -1008 -250 -38 -5 -126
-10 -195 -10 -246 0 -437 32 -940 159 l-385 97 -3 212 c-2 197 -1 212 15 212
10 0 297 -70 638 -154 l620 -154 630 157 630 157 3 -210 c1 -115 -1 -213 -5
-216z m0 -480 c-12 -10 -926 -237 -1003 -250 -95 -15 -317 -12 -460 5 -176 22
-365 62 -740 158 l-325 84 -3 156 c-2 151 -2 157 17 157 19 0 90 -18 446 -110
407 -106 573 -133 800 -134 252 0 388 25 1060 197 l210 54 3 -155 c1 -86 -1
-158 -5 -162z"/>
<path d="M153 4079 c-12 -4 -28 -18 -37 -31 -15 -20 -16 -200 -16 -2001 0
-2112 -2 -2023 45 -2041 9 -3 376 -6 816 -6 l800 0 24 25 c40 40 30 96 -22
123 -16 9 -218 12 -762 12 l-741 0 0 1934 c0 1911 0 1934 -20 1958 -22 28 -56
39 -87 27z"/>
<path d="M645 3955 l-25 -24 0 -1415 c0 -1016 3 -1422 11 -1439 14 -31 48 -47
98 -47 64 0 165 -37 228 -84 101 -74 162 -184 178 -322 5 -38 15 -67 28 -81
20 -23 22 -23 313 -23 l293 0 20 26 c27 34 27 64 0 98 l-20 26 -240 0 -239 0
-6 28 c-37 168 -120 296 -250 385 -68 47 -187 96 -231 97 l-23 0 0 1359 c0
966 -3 1367 -11 1390 -19 55 -82 69 -124 26z"/>
<path d="M4374 3966 c-19 -14 -19 -43 -24 -1397 l-5 -1382 -58 -14 c-124 -28
-259 -116 -334 -216 -60 -82 -81 -125 -103 -210 l-18 -72 -242 -5 c-239 -5
-242 -5 -261 -29 -26 -32 -24 -67 6 -96 l24 -25 291 0 c277 0 291 1 310 20 11
11 20 26 20 33 1 56 25 161 49 211 66 138 225 246 362 246 45 0 94 21 103 45
3 9 6 655 6 1434 l0 1418 -21 27 c-23 30 -72 35 -105 12z"/>
<path d="M4902 3043 c-7 -3 -19 -18 -27 -33 -13 -25 -15 -214 -15 -1439 l0
-1411 -751 -2 -751 -3 -24 -28 c-31 -36 -31 -71 1 -102 l24 -25 806 0 c788 0
805 0 825 20 11 11 22 30 25 42 3 13 4 682 3 1486 l-3 1464 -24 19 c-22 18
-61 23 -89 12z"/>
<path d="M2421 2444 l-104 -85 -51 6 c-28 4 -87 7 -132 8 -117 3 -121 -2 -164
-159 l-35 -129 -80 -51 c-102 -66 -145 -102 -156 -131 -6 -17 2 -50 37 -140
25 -65 46 -125 46 -133 1 -8 -17 -61 -40 -118 -25 -60 -42 -119 -42 -142 0
-39 0 -40 118 -119 l119 -79 33 -126 c21 -80 40 -132 53 -143 17 -16 37 -18
162 -15 l142 3 79 -66 c100 -84 145 -108 177 -96 13 5 66 44 118 85 l94 76
142 -3 c131 -2 144 0 162 18 13 12 33 68 53 144 l33 124 95 63 c109 71 143
103 143 137 0 13 -19 72 -42 131 -22 59 -41 116 -41 126 0 11 18 64 40 119 39
96 49 152 31 180 -5 7 -57 45 -117 85 l-109 71 -31 116 c-16 64 -38 128 -47
142 -15 24 -67 44 -85 33 -4 -2 -58 -6 -119 -7 l-112 -2 -63 55 c-91 79 -136
108 -172 108 -24 -1 -55 -20 -135 -86z m229 -159 c44 -35 92 -68 106 -71 15
-4 73 -4 129 -1 l103 6 27 -102 c15 -56 34 -112 41 -123 7 -12 54 -48 104 -79
49 -32 90 -61 90 -65 0 -4 -13 -40 -30 -80 -55 -135 -55 -135 -10 -252 22 -57
40 -106 40 -109 0 -4 -42 -34 -94 -68 -99 -65 -112 -83 -136 -181 -6 -25 -16
-62 -21 -83 l-10 -38 -113 7 c-129 8 -127 8 -233 -78 -39 -32 -76 -58 -83 -58
-6 0 -47 29 -91 65 -43 35 -91 68 -105 71 -14 4 -72 3 -129 0 l-104 -7 -11 43
c-26 105 -43 164 -51 180 -5 9 -52 45 -104 79 -52 33 -95 65 -95 69 0 4 13 39
29 76 56 133 56 137 11 259 -23 59 -40 109 -38 110 2 2 45 31 96 64 104 68
108 74 143 214 l21 86 122 -6 121 -5 89 71 c49 39 92 71 97 71 5 0 45 -29 89
-65z"/>
<path d="M2507 1959 c-228 -35 -350 -287 -239 -492 80 -148 274 -214 423 -145
79 36 133 89 171 165 27 56 32 75 32 143 0 68 -5 87 -33 144 -66 135 -206 208
-354 185z m120 -168 c133 -61 131 -263 -4 -323 -144 -64 -289 83 -228 229 21
50 42 72 90 94 51 24 89 23 142 0z"/>
<path d="M2044 770 c-53 -21 -54 -29 -54 -388 l0 -333 25 -24 c13 -14 34 -25
46 -25 12 0 129 45 260 100 l239 100 239 -100 c132 -55 249 -100 261 -100 11
0 32 11 45 25 l25 24 0 335 0 335 -23 27 c-30 35 -79 37 -110 5 -21 -21 -22
-29 -25 -286 -2 -146 -5 -265 -7 -265 -2 0 -90 37 -197 81 -228 96 -192 97
-445 -11 -89 -39 -164 -70 -167 -70 -3 0 -6 119 -8 265 -3 249 -4 266 -23 284
-26 24 -54 32 -81 21z"/>
</g>
</svg>
