<?xml version="1.0" standalone="no"?>
<!DOCTYPE svg PUBLIC "-//W3C//DTD SVG 20010904//EN"
 "http://www.w3.org/TR/2001/REC-SVG-20010904/DTD/svg10.dtd">
<svg version="1.0" xmlns="http://www.w3.org/2000/svg"
 width="512.000000pt" height="512.000000pt" viewBox="0 0 512.000000 512.000000"
 preserveAspectRatio="xMidYMid meet">

<g transform="translate(0.000000,512.000000) scale(0.100000,-0.100000)"
fill="#000000" stroke="none">
<path d="M813 4961 c-96 -33 -170 -109 -198 -204 -23 -76 -23 -3988 0 -4064
18 -62 63 -124 117 -163 47 -34 78 -38 101 -12 29 31 20 56 -34 102 -98 83
-89 -145 -89 2103 0 1766 2 1982 16 2015 20 49 60 90 109 113 38 18 101 19
1540 19 1434 0 1502 -1 1540 -19 48 -22 87 -60 109 -105 14 -29 16 -82 16
-360 0 -313 1 -327 20 -346 24 -24 53 -26 75 -4 14 15 16 55 13 368 l-3 351
-27 51 c-35 66 -105 128 -174 154 -54 20 -71 20 -1567 20 -1425 -1 -1515 -2
-1564 -19z"/>
<path d="M1166 4625 c-73 -30 -138 -91 -174 -165 l-27 -55 -3 -1985 c-2 -1964
-2 -1986 18 -2051 25 -84 87 -156 168 -196 l57 -28 1535 0 1535 0 57 28 c68
33 121 90 156 166 l26 56 2 1509 3 1509 -526 533 c-288 293 -567 571 -618 618
l-93 86 -1029 0 -1028 0 -59 -25z m2046 -522 l3 -438 32 -68 c38 -80 114 -163
183 -201 92 -50 148 -56 583 -56 l397 0 0 -1435 c0 -971 -3 -1450 -11 -1483
-13 -61 -66 -127 -123 -153 -39 -18 -105 -19 -1536 -19 -1427 0 -1497 1 -1535
19 -22 10 -55 33 -73 52 -66 68 -63 -68 -60 2100 l3 1966 30 48 c22 36 45 57
84 77 l53 28 984 0 983 0 3 -437z m1108 -646 c0 -5 -170 -7 -377 -5 l-378 3
-56 26 c-69 33 -127 89 -160 155 -24 49 -24 49 -27 439 l-3 390 501 -500 c275
-275 500 -504 500 -508z"/>
<path d="M1938 4265 c-298 -73 -513 -362 -495 -665 11 -172 91 -339 215 -450
67 -60 212 -133 296 -150 382 -77 744 190 781 576 7 65 5 74 -14 93 -47 47
-86 16 -96 -79 -26 -232 -172 -408 -394 -474 -71 -21 -211 -21 -282 0 -145 43
-277 150 -337 274 -34 69 -62 179 -62 245 0 66 27 172 62 243 81 164 281 292
458 292 22 0 45 7 54 16 19 18 21 65 4 82 -16 16 -118 14 -190 -3z"/>
<path d="M2466 4258 c-10 -14 -16 -44 -16 -80 l0 -57 -67 -3 c-61 -3 -69 -6
-82 -29 -13 -24 -13 -29 2 -53 16 -24 23 -26 82 -26 l65 0 0 -58 c0 -87 34
-122 91 -92 16 9 19 22 19 80 l0 70 63 0 c73 0 100 14 100 55 0 41 -27 55
-100 55 l-63 0 0 68 c0 40 -5 73 -12 80 -20 20 -65 14 -82 -10z"/>
<path d="M2057 3978 c-19 -15 -259 -611 -259 -645 -1 -32 20 -53 52 -53 36 0
41 7 85 118 l37 92 117 0 117 0 40 -97 c43 -106 58 -122 101 -107 50 17 43 46
-87 369 -67 165 -129 308 -137 318 -19 20 -43 22 -66 5z m68 -283 c15 -38 29
-76 32 -82 4 -10 -13 -13 -67 -13 -53 0 -71 3 -68 13 30 87 64 165 69 159 3
-4 18 -38 34 -77z"/>
<path d="M1435 2846 c-37 -17 -70 -52 -84 -89 -7 -17 -11 -116 -11 -244 0
-199 2 -220 21 -259 12 -26 36 -53 57 -66 35 -22 49 -23 237 -26 244 -4 275 0
322 41 59 52 63 72 63 309 0 240 -8 274 -71 319 -33 24 -39 24 -269 26 -181 2
-242 0 -265 -11z m479 -118 c22 -31 24 -404 2 -434 -13 -18 -30 -19 -220 -22
-269 -4 -246 -26 -246 240 0 173 2 204 17 220 15 16 35 18 224 18 203 0 208 0
223 -22z"/>
<path d="M1799 2641 c-13 -11 -49 -49 -79 -84 l-55 -65 -42 39 c-45 42 -60 46
-85 27 -33 -26 -30 -53 10 -105 46 -57 98 -103 117 -103 20 0 52 31 144 139
82 95 91 114 69 143 -21 27 -53 30 -79 9z"/>
<path d="M2285 2706 c-18 -27 -7 -69 20 -80 9 -3 394 -6 855 -6 749 0 840 2
854 16 19 18 21 65 4 82 -9 9 -215 12 -865 12 l-853 0 -15 -24z"/>
<path d="M2285 2376 c-18 -27 -7 -69 20 -80 9 -3 180 -6 379 -6 311 0 365 2
384 16 24 17 30 62 10 82 -9 9 -110 12 -395 12 l-383 0 -15 -24z"/>
<path d="M3287 2382 c-22 -25 -21 -48 3 -72 19 -19 33 -20 358 -20 289 0 341
2 360 16 24 17 30 62 10 82 -9 9 -103 12 -363 12 -328 0 -353 -1 -368 -18z"/>
<path d="M1428 2020 c-20 -11 -47 -34 -60 -52 -22 -32 -23 -40 -26 -268 -2
-228 -2 -236 20 -275 15 -26 39 -48 68 -62 42 -22 56 -23 261 -23 206 0 218 1
259 23 30 16 51 37 67 67 22 41 23 53 23 259 0 205 -1 219 -22 261 -15 30 -37
53 -63 67 -38 22 -50 23 -265 22 -203 0 -229 -2 -262 -19z m482 -110 c19 -19
20 -33 20 -220 0 -187 -1 -201 -20 -220 -19 -19 -33 -20 -218 -20 -163 0 -201
3 -220 16 -22 15 -22 20 -22 221 0 178 2 209 17 225 15 16 35 18 220 18 190 0
204 -1 223 -20z"/>
<path d="M1734 1750 l-68 -80 -36 35 c-43 42 -82 46 -105 11 -21 -32 -11 -52
63 -128 35 -36 65 -58 79 -58 26 0 223 219 223 249 0 25 -32 51 -62 51 -20 0
-42 -19 -94 -80z"/>
<path d="M2290 1890 c-11 -11 -20 -27 -20 -35 0 -8 9 -24 20 -35 20 -20 33
-20 861 -20 560 0 847 3 860 10 13 7 19 21 19 45 0 24 -6 38 -19 45 -13 7
-300 10 -860 10 -828 0 -841 0 -861 -20z"/>
<path d="M2286 1558 c-21 -30 -20 -44 4 -68 19 -19 33 -20 394 -20 327 0 377
2 390 16 23 22 20 71 -3 84 -13 6 -155 10 -395 10 l-375 0 -15 -22z"/>
<path d="M3367 1562 c-22 -24 -21 -55 1 -75 16 -15 47 -17 220 -17 189 0 203
1 222 20 24 24 25 38 4 68 -15 22 -20 22 -223 22 -189 0 -209 -2 -224 -18z"/>
<path d="M1429 1197 c-27 -15 -52 -38 -66 -63 -22 -37 -23 -50 -23 -262 0
-251 4 -271 68 -320 l35 -27 247 0 247 0 35 27 c63 48 70 82 66 334 -3 216 -3
221 -28 257 -47 70 -77 77 -322 77 -206 0 -217 -1 -259 -23z m481 -107 c19
-19 20 -33 20 -218 0 -163 -3 -201 -16 -220 -15 -22 -20 -22 -221 -22 -178 0
-209 2 -225 17 -16 15 -18 35 -18 220 0 190 1 204 20 223 19 19 33 20 220 20
187 0 201 -1 220 -20z"/>
<path d="M1793 992 c-10 -9 -42 -46 -72 -80 l-55 -63 -36 36 c-42 41 -81 46
-104 13 -9 -12 -16 -29 -16 -36 0 -25 131 -152 156 -152 17 0 49 29 115 103
110 123 118 137 95 172 -20 30 -58 33 -83 7z"/>
<path d="M2302 1083 c-25 -10 -34 -53 -17 -79 l15 -24 853 0 c650 0 856 3 865
12 17 17 15 64 -4 82 -14 14 -105 16 -857 15 -463 0 -848 -3 -855 -6z"/>
<path d="M2287 732 c-20 -22 -22 -63 -5 -80 9 -9 110 -12 395 -12 l383 0 15
24 c14 20 14 29 4 48 -7 13 -17 26 -23 30 -6 4 -178 8 -382 8 -347 0 -372 -1
-387 -18z"/>
<path d="M3290 730 c-25 -25 -26 -52 -2 -73 16 -15 49 -17 260 -17 l242 0 15
24 c14 20 14 29 4 48 -7 13 -17 26 -23 30 -6 4 -116 8 -243 8 -220 0 -234 -1
-253 -20z"/>
</g>
</svg>
