<?xml version="1.0" standalone="no"?>
<!DOCTYPE svg PUBLIC "-//W3C//DTD SVG 20010904//EN"
 "http://www.w3.org/TR/2001/REC-SVG-20010904/DTD/svg10.dtd">
<svg version="1.0" xmlns="http://www.w3.org/2000/svg"
 width="512.000000pt" height="512.000000pt" viewBox="0 0 512.000000 512.000000"
 preserveAspectRatio="xMidYMid meet">

<g transform="translate(0.000000,512.000000) scale(0.100000,-0.100000)"
fill="#000000" stroke="none">
<path d="M2807 4450 c-107 -27 -204 -106 -253 -206 -26 -54 -29 -68 -29 -164
0 -93 3 -112 27 -162 48 -102 138 -179 246 -207 l42 -12 0 -194 0 -195 -393 0
c-292 0 -396 -3 -405 -12 -20 -20 -14 -65 10 -82 19 -14 75 -16 405 -16 l383
0 0 -224 0 -223 -49 -7 c-66 -9 -197 -75 -244 -124 l-39 -40 -581 455 c-320
251 -601 471 -624 490 l-42 33 15 41 c44 126 -10 270 -124 332 -186 101 -404
-27 -404 -238 0 -203 213 -337 391 -245 23 11 47 17 54 13 7 -4 54 -40 105
-80 l94 -73 -420 0 -419 0 -34 -23 c-18 -12 -44 -38 -56 -56 l-23 -34 0 -993
0 -994 -110 0 c-98 0 -110 -2 -120 -19 -6 -12 -10 -98 -10 -211 0 -216 6 -240
66 -286 l37 -29 1947 0 1946 0 36 24 c19 13 46 40 59 59 23 34 24 43 27 234 2
143 0 204 -9 214 -9 10 -38 14 -120 14 l-109 0 0 353 c0 261 -3 356 -12 365
-17 17 -64 15 -82 -4 -14 -13 -16 -61 -16 -365 l0 -349 -1710 0 -1710 0 0 974
c0 913 1 975 18 995 17 21 21 21 490 21 l473 1 454 -355 453 -355 -25 -63
c-96 -236 -2 -513 219 -645 61 -37 189 -73 258 -73 130 0 268 54 362 142 86
79 133 166 162 301 l6 27 370 0 369 0 12 -42 c62 -232 316 -348 538 -245 69
31 154 123 181 194 79 207 -16 428 -217 503 -83 31 -215 26 -295 -12 -102 -48
-179 -138 -207 -245 -11 -41 -13 -43 -51 -43 l-40 0 0 328 c0 242 -3 331 -12
340 -20 20 -65 14 -82 -10 -14 -19 -16 -69 -16 -340 l0 -318 -274 0 c-305 0
-276 -7 -292 70 -3 19 -17 59 -30 89 -13 29 -24 55 -24 58 0 3 388 408 825
861 l32 34 47 -16 c131 -45 277 17 338 142 17 35 22 65 22 117 0 288 -381 377
-517 121 -32 -60 -31 -183 2 -245 l23 -44 -83 -83 -84 -84 -387 0 c-373 0
-388 -1 -398 -19 -14 -27 -13 -44 4 -67 14 -18 32 -19 344 -24 l330 -5 -285
-297 -285 -297 -49 39 c-66 52 -144 89 -218 103 l-61 12 0 472 0 472 42 12
c157 42 267 173 284 338 17 158 -95 334 -246 387 -56 19 -172 26 -223 14z
m210 -136 c210 -101 185 -415 -40 -490 -173 -57 -359 88 -345 271 8 89 44 149
131 215 30 22 109 40 157 34 25 -3 68 -16 97 -30z m-1955 -464 c21 -6 51 -27
71 -50 61 -67 61 -143 0 -211 -99 -109 -273 -41 -273 106 0 71 48 134 118 155
37 11 42 11 84 0z m3331 -54 c71 -26 109 -78 109 -151 0 -76 -45 -133 -123
-156 -32 -10 -46 -9 -83 5 -150 57 -149 248 0 301 48 17 50 17 97 1z m-1321
-1194 c161 -79 260 -264 229 -429 -33 -179 -167 -313 -343 -343 -172 -30 -354
69 -434 238 -40 82 -46 207 -14 295 34 94 80 155 158 209 77 53 135 69 243 65
84 -2 103 -6 161 -35z m1573 -126 c143 -66 199 -220 132 -358 -47 -96 -131
-148 -240 -148 -149 0 -261 113 -262 265 0 59 5 78 30 124 31 56 88 106 148
128 55 20 136 15 192 -11z m-435 -1510 c0 -128 -1 -136 -24 -163 l-24 -28
-1906 -3 c-1897 -2 -1906 -2 -1926 18 -18 18 -20 33 -20 165 l0 145 1950 0
1950 0 0 -134z"/>
<path d="M3569 1007 c-66 -51 -35 -151 48 -151 72 0 109 89 58 139 -27 27 -79
33 -106 12z"/>
<path d="M3779 1007 c-66 -51 -35 -151 48 -151 72 0 109 89 58 139 -27 27 -79
33 -106 12z"/>
<path d="M3963 998 c-62 -67 -2 -166 83 -138 40 13 54 35 54 84 0 67 -92 103
-137 54z"/>
<path d="M405 966 c-18 -27 -7 -69 20 -80 22 -8 1328 -8 1350 0 27 11 38 53
20 80 l-15 24 -680 0 -680 0 -15 -24z"/>
</g>
</svg>
